<svg width="16" height="16" viewBox="0 0 16 16" fill="none" xmlns="http://www.w3.org/2000/svg">
<rect width="16" height="16" rx="3" fill="black"/>
<path d="M5 11V11.0758H5.03677C5.33088 11.1706 5.42279 11.5308 5.51471 11.7773L6.70956 15L7.5 12.8389C7.51838 12.8957 8.29044 15 8.29044 15L9.59559 11.4739C9.61397 11.3981 9.65074 11.3412 9.70588 11.2654C9.85294 11.0569 10 11.0758 10 11.0758V11H8.75V11.0758C8.75 11.0569 8.87868 11.0758 8.87868 11.0758C8.97059 11.0948 9.0625 11.1327 9.09926 11.2085C9.19118 11.3412 9.09927 11.4929 9.0625 11.6256L8.38235 13.4834C8.30882 13.654 8.14338 14.128 8.125 14.1848L7.57353 12.6872L8.01471 11.4739C8.03309 11.3981 8.06985 11.3412 8.125 11.2654C8.27206 11.0569 8.41912 11.0758 8.41912 11.0758V11H6.61765V11.0758L6.65441 11.0948C6.94853 11.1896 7.04044 11.5118 7.13235 11.7962C7.16912 11.9289 7.22426 12.0427 7.27941 12.1754C7.20588 12.3839 7.11397 12.6114 7.04044 12.8199L6.80147 13.4834C6.72794 13.654 6.67279 13.8246 6.61765 13.9953L6.54412 14.2038C6.54412 14.2038 5.625 11.7393 5.58824 11.5498C5.49632 11.0379 6.04779 11.0758 6.04779 11.0758V11H5ZM7.31618 12.0427L7.1875 11.7014C7.16912 11.6635 7.15074 11.6066 7.15074 11.5687C7.11397 11.3791 7.1875 11.2464 7.26103 11.1896C7.40809 11.0948 7.5 11.2275 7.5 11.2275C7.57353 11.3412 7.53676 11.455 7.48162 11.5687L7.44485 11.6446C7.42647 11.7773 7.37132 11.91 7.31618 12.0427Z" fill="white"/>
<path d="M14 14.7009V15H9.56723V14.7009C9.56723 14.7009 11.0325 14.7806 10.8284 13.2051C10.8099 13.0456 10.7728 12.906 10.7172 12.7066L9.86399 10.3333L9.60433 9.65527H5.09737L4.83771 10.3333L4.02164 12.6268C3.89181 13.0855 3.89181 13.4644 3.966 13.7436C4.2442 14.7607 5.5796 14.6809 5.5796 14.6809V14.9801H2V14.6809C2 14.6809 2.77898 14.641 3.40958 13.3248L5.07883 8.57835L7.13756 2.77493L7.41577 1.91738L7.65688 1.29915L8.26893 1H8.28748V1.01994C8.28748 1.01994 12.5162 12.906 12.5348 12.9858C12.6461 13.2849 12.7944 13.584 12.9614 13.8832C13.1468 14.1624 13.3509 14.4017 13.6105 14.5812C13.7032 14.641 13.796 14.6809 13.8887 14.7009H14ZM9.49305 9.27635L9.23339 8.59829L7.36012 3.25356L7.34158 3.31339L5.46832 8.59829L5.20866 9.27635H9.49305Z" fill="white"/>
</svg>
