<svg width="157" height="53" viewBox="0 0 157 53" fill="none" xmlns="http://www.w3.org/2000/svg">
<path d="M48.1874 51.139V52.2556H30.3871V51.139C30.3871 51.139 36.2709 51.4368 35.4516 45.5562C35.3771 44.9607 35.2282 44.4396 35.0047 43.6952L31.5787 34.8371L30.5361 32.3062H12.4379L11.3952 34.8371L8.11812 43.3975C7.59677 45.1096 7.59677 46.5239 7.89469 47.566C9.01186 51.3624 14.3743 51.0646 14.3743 51.0646V52.1812H0V51.0646C0 51.0646 3.12808 50.9157 5.66034 46.0028L12.3634 28.2865L20.6305 6.625L21.7476 3.42416L22.7158 1.11657L25.1736 0H25.2481V0.0744382C25.2481 0.0744382 42.2291 44.4396 42.3036 44.7374C42.7505 45.8539 43.3463 46.9705 44.0166 48.0871C44.7614 49.1292 45.5806 50.0225 46.6233 50.6924C46.9957 50.9157 47.3681 51.0646 47.7405 51.139H48.1874ZM30.0892 30.8919L29.0465 28.361L21.5242 8.41152L21.4497 8.63483L13.9274 28.361L12.8847 30.8919H30.0892Z" fill="white"/>
<path d="M32.3235 37.2191V37.5169H32.1746C30.9829 37.8891 30.6105 39.3034 30.2381 40.2711L25.3971 52.9256L22.1945 44.4396C22.12 44.6629 18.9919 52.9256 18.9919 52.9256L13.704 39.0801C13.6295 38.7823 13.4805 38.559 13.2571 38.2613C12.6613 37.4424 12.0655 37.5169 12.0655 37.5169V37.2191H17.13V37.5169C17.13 37.4424 16.6086 37.5169 16.6086 37.5169C16.2362 37.5913 15.8639 37.7402 15.7149 38.0379C15.3425 38.559 15.7149 39.1545 15.8638 39.6756L18.6195 46.9705C18.9175 47.6405 19.5878 49.5014 19.6622 49.7247L21.8966 43.8441L20.1091 39.0801C20.0346 38.7823 19.8857 38.559 19.6622 38.2613C19.0664 37.4424 18.4706 37.5169 18.4706 37.5169V37.2191H25.7694V37.5169L25.6205 37.5913C24.4288 37.9635 24.0564 39.2289 23.6841 40.3455C23.5351 40.8666 23.3117 41.3132 23.0882 41.8343C23.3861 42.6531 23.7585 43.5464 24.0564 44.3652L25.0247 46.9705C25.3226 47.6405 25.546 48.3104 25.7694 48.9804L26.0674 49.7992C26.0674 49.7992 29.7913 40.1222 29.9402 39.3778C30.3126 37.368 28.0783 37.5169 28.0783 37.5169V37.2191H32.3235ZM22.9393 41.3132L23.4606 39.9733C23.5351 39.8245 23.6096 39.6011 23.6096 39.4523C23.7585 38.7079 23.4606 38.1868 23.1627 37.9635C22.5669 37.5913 22.1945 38.1124 22.1945 38.1124C21.8966 38.559 22.0455 39.0056 22.269 39.4523L22.4179 39.75C22.4924 40.2711 22.7158 40.7922 22.9393 41.3132Z" fill="white"/>
<path d="M63.3809 52.0323V52.33H58.3164V52.0323C58.3164 52.0323 60.0294 52.1067 59.7315 50.4691C59.7315 50.3202 59.657 50.1713 59.5825 49.948L58.6143 47.4171L58.3164 46.6727H53.1029L52.805 47.4171L51.9113 49.8736C51.7623 50.3947 51.7623 50.7668 51.8368 51.0646C52.1347 52.1812 53.6988 52.1067 53.6988 52.1067V52.4045H49.6025V52.1067C49.6025 52.1067 50.4962 52.0323 51.241 50.6924L53.1774 45.6306L55.5607 39.3778L55.8586 38.4845L56.1565 37.8146L56.8269 37.5168C56.8269 37.5168 61.6679 50.2458 61.7424 50.3202C61.8914 50.618 62.0403 50.9902 62.2638 51.2879C62.4872 51.5857 62.7106 51.809 63.0085 52.0323C63.083 52.1067 63.232 52.1067 63.3065 52.1812L63.3809 52.0323ZM58.1675 46.2261L57.8695 45.4817L55.7097 39.75V39.8244L53.5498 45.4817L53.2519 46.2261H58.1675Z" fill="white"/>
<path d="M77.6807 52.3301H72.9886V51.9579C72.9886 51.9579 74.3292 52.0323 73.8079 51.0646L70.4564 46.2261C70.3819 46.1517 70.3819 46.1517 70.3819 46.1517C70.3074 46.0773 70.2329 45.9284 70.1584 45.7795C70.084 45.7051 70.0095 45.5562 69.935 45.4818C69.8605 45.4073 69.8605 45.4073 69.7861 45.3329C69.6371 45.184 69.4881 45.0351 69.2647 44.9607L69.1158 44.8863C69.0413 44.8118 68.8923 44.8118 68.7434 44.7374C68.5944 44.7374 68.4454 44.7374 68.2965 44.7374V50.618C68.371 52.1812 70.084 52.1068 70.084 52.1068V52.4045H64.7215V52.1068H64.796C65.0195 52.1068 66.3601 52.0323 66.509 50.7669V44.3652H66.8814C67.1793 44.3652 67.4772 44.3652 67.7751 44.3652C68.0731 44.3652 68.4455 44.3652 68.7434 44.2907H68.8178H68.8923C68.8923 44.2907 68.8923 44.2907 68.9668 44.2907H69.0413L67.7007 42.4298L67.1048 41.5365C66.7325 41.0155 66.509 40.3455 66.509 39.6756V39.0056C66.3601 37.5169 64.7215 37.5913 64.7215 37.5913V37.2191H70.084V37.5169C70.084 37.5169 68.4454 37.4424 68.2965 38.9312V39.2289C68.2965 39.75 68.4455 40.1966 68.7434 40.6433L70.6053 43.2486C70.6798 43.1742 70.6798 43.1742 70.7543 43.0997C70.7543 43.0997 70.7543 43.0253 70.8287 43.0253L70.9032 42.9509L70.9777 42.8764L73.6589 39.3034C74.8506 37.5169 72.6162 37.5913 72.6162 37.5913V37.2191H76.8615V37.5169C76.8615 37.5169 76.8615 37.5169 76.787 37.5169C76.7125 37.5169 76.5636 37.5169 76.4146 37.5913C75.6698 37.7402 75.074 38.1124 74.6271 38.7079L70.9777 43.5464L72.0949 45.1096L72.2438 45.4073L75.8933 50.6924C76.7125 51.6601 77.4573 51.8834 77.6807 51.8834C77.7552 51.8834 77.7552 51.8834 77.7552 51.8834V52.3301H77.6807Z" fill="white"/>
<path d="M90.6399 48.0871V52.3301H81.4046H79.6172V52.0323C79.6172 52.0323 81.2557 52.1068 81.4046 50.6924V44.5141H84.7562C84.9796 44.5141 85.203 44.4396 85.352 44.4396L83.2666 41.9087L79.6916 37.5169V37.2191H79.9151H81.8515H83.2666H85.0541H89.0014H90.1931V41.0155H89.6717C89.6717 39.1545 89.2993 37.6657 86.7671 37.6657H84.9796H84.7562H82.0749L86.5436 43.0997C86.6181 42.6531 86.6926 42.2809 86.6926 41.8343H87.065V47.6405H86.6926C86.6926 46.3006 86.4692 44.9607 84.8306 44.8863H83.2666V50.618C83.3411 51.9579 84.9796 51.8834 85.0541 51.8834H87.3629C89.8207 51.8834 90.1931 50.0225 90.1931 48.0871H90.6399V48.0871Z" fill="white"/>
<path d="M96.3748 37.2191L104.344 49.5759V52.2556H103.897L94.9597 38.4101V50.4691C94.9597 50.618 94.9597 50.6924 95.0342 50.8413C95.3321 52.0323 96.7472 51.9579 96.7472 51.9579V52.2556H92.7998V51.9579C92.7998 51.9579 94.2149 52.0323 94.5128 50.7669C94.5128 50.618 94.5873 50.5436 94.5873 50.3947V38.9312C94.4383 37.4424 92.7998 37.5913 92.7998 37.5913V37.2191H96.3748ZM106.876 37.2191V37.5169C106.876 37.5169 105.163 37.4424 105.089 39.0056V45.4818V45.5562V48.236H104.642L97.5664 37.2191H99.8008L104.716 44.8118V39.0056C104.642 37.4424 102.78 37.5169 102.78 37.5169V37.2191H106.876Z" fill="white"/>
<path d="M114.101 52.0323V52.3301H108.738V52.0323C108.738 52.0323 110.153 52.1068 110.451 50.9902C110.526 50.8413 110.526 50.6924 110.526 50.5436V39.0801C110.526 38.9312 110.526 38.8568 110.451 38.7079C110.153 37.5169 108.738 37.5913 108.738 37.5913V37.2191H114.101V37.5169C114.101 37.5169 112.685 37.4424 112.388 38.6334C112.388 38.7823 112.313 38.8568 112.313 39.0056V50.5436C112.388 52.1068 114.101 52.0323 114.101 52.0323Z" fill="white"/>
<path d="M120.58 37.2935L128.549 49.6503V52.3301H128.102L119.165 38.4846V50.5436C119.165 50.6924 119.165 50.7669 119.24 50.9157C119.537 52.1068 120.953 52.0323 120.953 52.0323V52.3301H116.931V52.0323C116.931 52.0323 118.346 52.1068 118.644 50.8413C118.644 50.6924 118.718 50.618 118.718 50.4691V38.9312C118.569 37.4424 116.931 37.5913 116.931 37.5913V37.2935H120.58ZM131.007 37.2935V37.5913C131.007 37.5913 129.294 37.5169 129.22 39.0801V45.5562V45.6306V48.3104H128.773L121.697 37.368H123.932L128.847 44.9607V39.1545C128.773 37.5913 126.911 37.6657 126.911 37.6657V37.368H131.007V37.2935Z" fill="white"/>
<path d="M145.53 45.8539V46.3006C145.307 46.3006 145.158 46.375 145.009 46.375C144.786 46.4494 144.562 46.7472 144.562 47.1938V47.2683V49.6503L144.637 52.3301H144.041C144.041 51.8834 143.817 51.1391 143.445 51.1391C143.296 51.1391 143.147 51.2135 142.775 51.5112C141.881 52.1812 140.987 52.5534 139.796 52.7023C139.647 52.7023 139.498 52.7023 139.274 52.7023H139.2C137.338 52.7023 135.997 52.1812 134.954 51.2879C133.688 50.3202 132.869 48.757 132.571 46.8961C132.497 46.3006 132.422 45.7051 132.422 45.1096C132.422 40.941 134.21 38.9312 135.848 37.8891C136.518 37.4424 137.338 37.2191 138.157 37.0702C138.231 37.0702 138.306 37.0702 138.455 36.9958C138.753 36.9214 139.051 36.9214 139.349 36.9214C141.136 36.9214 142.104 37.5913 143.147 38.3357C143.296 38.4101 143.445 38.6334 143.668 38.4846C143.743 38.4101 143.817 38.4101 143.817 38.3357C143.892 38.1868 143.966 37.9635 144.041 37.7402L144.115 37.368C144.115 37.2935 144.115 37.2935 144.115 37.2935H144.637C144.562 38.3357 144.562 39.6756 144.562 42.0576V42.132H144.041C144.041 41.9832 144.041 41.9087 143.966 41.7598C143.817 41.0155 143.668 40.3455 143.37 39.75C143.222 39.4523 143.073 39.1545 142.849 38.9312C142.7 38.7079 142.402 38.4846 142.179 38.3357C141.285 37.7402 140.317 37.4424 139.274 37.4424C138.976 37.4424 138.604 37.4424 138.38 37.5169C137.487 37.7402 136.742 38.2612 136.146 39.0801C135.476 39.9733 134.88 41.4621 134.657 43.7697C134.508 45.3329 134.657 46.8961 135.178 48.3848C135.699 50.0225 136.742 51.809 138.604 52.2556C138.902 52.3301 139.274 52.3301 139.647 52.3301H139.796C140.466 52.2556 141.136 52.0323 141.806 51.7346L141.881 51.6601C142.104 51.5112 142.253 51.3624 142.328 51.1391C142.402 50.9902 142.402 50.8413 142.477 50.6924V50.5435V50.0969L142.402 47.9382C142.402 47.1938 142.104 46.8216 141.732 46.5983C141.434 46.4494 140.913 46.4494 140.317 46.4494V46.0028L141.881 46.0773H144.19C144.786 45.9284 145.232 45.8539 145.53 45.8539Z" fill="white"/>
<path d="M155.51 49.0548C155.51 49.3525 155.51 49.6503 155.436 49.948C155.287 50.7669 154.84 51.4368 154.17 51.8834C153.648 52.2556 153.053 52.4045 152.457 52.5534C152.01 52.6278 151.638 52.6278 151.191 52.6278C150.744 52.5534 150.371 52.4789 149.925 52.3301C149.701 52.2556 149.552 52.1812 149.329 52.0323C149.18 51.8834 148.956 51.7346 148.807 51.6601C148.658 51.5857 148.435 51.5112 148.286 51.6601C148.137 51.809 148.063 51.9579 148.063 52.1812C148.063 52.2556 147.988 52.3301 147.988 52.4789H147.616L147.69 50.3202V48.0126H148.137V48.0871C148.137 48.6826 148.286 49.2781 148.509 49.8736C148.658 50.3202 148.882 50.6924 149.18 51.0646C149.329 51.2879 149.478 51.4368 149.701 51.5857C149.925 51.809 150.148 51.8834 150.446 51.9579L150.967 52.1067C151.34 52.1812 151.787 52.1812 152.159 52.1067C153.276 51.8834 153.797 50.9157 153.946 49.8736C154.244 48.0871 151.787 46.6728 149.85 45.5562C147.839 44.3652 147.839 42.5787 147.839 42.5787V41.9087L149.776 43.0997C150.222 43.6208 150.818 44.1419 151.861 44.5885C154.17 45.9284 155.51 47.566 155.51 49.0548ZM149.254 40.4944C149.18 39.8989 149.254 39.2289 149.552 38.7079C149.85 38.1124 150.371 37.6657 150.893 37.368C151.34 37.2191 151.787 37.0702 152.233 36.9958C152.382 36.9958 152.531 36.9958 152.68 36.9958H152.755C153.053 36.9958 153.351 37.0702 153.648 37.1447C154.095 37.2191 154.468 37.4424 154.84 37.6657C155.138 37.8146 155.51 38.1124 155.734 37.8146C155.808 37.6657 155.883 37.5169 155.957 37.368L156.032 37.1447H156.404L156.33 39.2289V40.941H155.957C155.883 40.4944 155.808 40.1222 155.659 39.75C155.51 39.3034 155.287 38.8567 154.989 38.4846C154.84 38.3357 154.691 38.1124 154.468 37.9635C154.244 37.8146 153.946 37.6657 153.648 37.5913C152.978 37.368 152.084 37.368 151.489 37.8146C151.191 37.9635 151.042 38.2612 150.818 38.4846C150.818 38.4846 149.18 40.7177 153.202 42.7275C155.659 43.9185 156.926 45.5562 156.926 47.0449C156.926 47.3427 156.926 47.566 156.851 47.8638L155.064 46.7472C154.393 45.5562 152.68 44.514 151.191 43.6208C149.254 42.2809 149.254 40.4944 149.254 40.4944Z" fill="white"/>
</svg>
